<svg id="Ebene_1" data-name="Ebene 1" xmlns="http://www.w3.org/2000/svg" viewBox="0 0 70 90"><defs><style>.cls-1{fill:#454a51;}.cls-2{fill:#2c3137;}.cls-3{fill:#d7d7d7;}.cls-4{fill:#c2c1c5;}.cls-5{fill:#1d1d1b;}.cls-6{fill:#8c8c92;}</style></defs><path class="cls-1" d="M21.54,85.37c-5.84-2.64-6.6-6.18-5.11-8.09,2.32-3,6.62-2.88,9.38-1.59,4.41,2.06,13,9.87,11.13,13.3C34.93,92.6,21.54,85.37,21.54,85.37Z"/><path class="cls-2" d="M43.07,84.89c-6.41.07-8.6-2.81-8.06-5.17.84-3.67,4.77-5.42,7.82-5.42,4.87,0,16,3.43,15.71,7.34C58.26,85.76,43.07,84.89,43.07,84.89Z"/><path class="cls-1" d="M49.67,70.81,18.08,69.28a4.17,4.17,0,0,1-3.95-4.36l.56-14.19L9.27,32.81l9.24-22.1a4.16,4.16,0,0,1,4.36-4L50.21,8.08a4.17,4.17,0,0,1,4,4.36l5.27,25.81L54,66.86C53.21,70.27,52,70.93,49.67,70.81Z"/><path class="cls-2" d="M24.17,13.76a47.43,47.43,0,0,1-.38,7.08c-.29,2.33-.7,4.63-1.19,6.91l-1.39-1.82c2.46.11,4.92.31,7.37.66,1.22.16,2.44.39,3.66.62a37.75,37.75,0,0,1,3.66.93,34.7,34.7,0,0,1-3.73.57c-1.24.11-2.48.23-3.71.27-2.47.1-4.93.07-7.39-.06l-1.78-.1.39-1.72c.52-2.28,1.13-4.53,1.85-6.76A46.58,46.58,0,0,1,24.17,13.76Z"/><path class="cls-2" d="M44.66,65.71a17.1,17.1,0,0,1,3.41-1,31,31,0,0,1,3.44-.49l-.88.73c.18-.68.39-1.35.6-2s.45-1.33.73-2,.54-1.3.84-1.94a18.46,18.46,0,0,1,1.05-1.89,19.41,19.41,0,0,1-.08,2.16c-.07.7-.16,1.41-.29,2.1s-.27,1.38-.4,2.07-.34,1.36-.53,2l-.2.68-.69.05a28.83,28.83,0,0,1-3.48,0A17.26,17.26,0,0,1,44.66,65.71Z"/><ellipse class="cls-3" cx="47.61" cy="27.61" rx="6.05" ry="10.02" transform="translate(-4.45 9.74) rotate(-11.16)"/><path class="cls-4" d="M44,34.44s-.2-11.68,6.13-15c0,0-3.79-2.94-5.69-1.18C37.8,24.41,44,34.44,44,34.44Z"/><ellipse class="cls-5" cx="51.61" cy="29.04" rx="2.24" ry="3.36" transform="translate(-3.62 7.68) rotate(-8.22)"/><path class="cls-5" d="M46.51,40.55S57,43.42,59.91,42.38C59,46.08,59,46.25,59,46.25S53,48.58,46.51,40.55Z"/><path class="cls-6" d="M53.74,10.51A3.74,3.74,0,0,0,50,8.11C47,8,22.92,6.63,22.35,6.85s-1.84-.08-2.51,2Z"/><path class="cls-2" d="M36.59,70.18,23.21,54.33l-10.1-23L22.87,6.75s-3.35-.65-4.36,4-9.24,22.1-9.24,22.1l5.42,17.92-.56,14.19s.25,4.18,2.54,4.29Z"/><path class="cls-5" d="M36.82,19.72c-.49-.6,6.07-9.29,10.15-9.1.11,0,.21,0,.28.06l1.4,1.71c.09.12.07.34-.08.35C44.25,13,37.3,20.31,36.82,19.72Z"/><path class="cls-5" d="M23.22,47.79S34.08,61.65,40.18,59c7.4-3.27-1-21.28-1-21.28Z"/></svg>