<svg id="Ebene_1" data-name="Ebene 1" xmlns="http://www.w3.org/2000/svg" viewBox="0 0 70 90"><defs><style>.cls-1{fill:#2c3137;}.cls-2{fill:#454a51;}.cls-3{fill:#d7d7d7;}.cls-4{fill:#c2c1c5;}.cls-5{fill:#1d1d1b;}.cls-6{fill:#8c8c92;}</style></defs><path class="cls-1" d="M35.5,89.58c-6.21.08-8.34-2.72-7.81-5,.81-3.56,4.62-5.25,7.58-5.25,4.73,0,15.5,3.32,15.24,7.11C50.23,90.43,35.5,89.58,35.5,89.58Z"/><path class="cls-2" d="M24.09,85c-6.21.15-8.37-2.62-7.88-4.92.78-3.56,4.57-5.3,7.52-5.34,4.73-.05,15.55,3.14,15.33,6.94C38.83,85.7,24.09,85,24.09,85Z"/><path class="cls-2" d="M43.68,78.65l-30.07-6a4,4,0,0,1-3.16-4.75L13,54.33l-2.61-18L22.48,16.5a4,4,0,0,1,4.76-3.16l26,5.23a4,4,0,0,1,3.16,4.75l1.33,25.51L48.43,75.49C47.16,78.64,45.87,79.09,43.68,78.65Z"/><path class="cls-1" d="M27.47,20.25A42.92,42.92,0,0,1,26.11,27Q25.2,30.29,24,33.45l-1.1-2a70.56,70.56,0,0,1,7,1.7c1.15.34,2.29.74,3.42,1.14a32,32,0,0,1,3.37,1.45,34.44,34.44,0,0,1-3.66,0c-1.21-.07-2.41-.14-3.6-.27a69.55,69.55,0,0,1-7.08-1.12L20.55,34l.65-1.64C22,30.27,22.93,28.2,24,26.17A44.58,44.58,0,0,1,27.47,20.25Z"/><path class="cls-1" d="M39.62,73A17,17,0,0,1,43,72.51a29.31,29.31,0,0,1,3.38,0l-1,.59a36.59,36.59,0,0,1,1.85-3.64c.34-.59.72-1.16,1.11-1.74a16.37,16.37,0,0,1,1.29-1.65,17,17,0,0,1-.38,2.06c-.17.67-.35,1.34-.56,2a36.51,36.51,0,0,1-1.49,3.8l-.3.64-.69-.06a27.11,27.11,0,0,1-3.34-.47A17,17,0,0,1,39.62,73Z"/><ellipse class="cls-3" cx="47.95" cy="36.92" rx="5.86" ry="9.72" transform="translate(-3.98 5.84) rotate(-6.7)"/><path class="cls-4" d="M43.9,43.25s.69-11.31,7.06-14c0,0-3.45-3.13-5.42-1.57C38.71,33.08,43.9,43.25,43.9,43.25Z"/><ellipse class="cls-5" cx="51.71" cy="38.6" rx="2.17" ry="3.26" transform="translate(-2.42 3.47) rotate(-3.76)"/><path class="cls-5" d="M45,49.17s9.69,4.27,12.59,3.69c-1.41,3.41-1.46,3.58-1.46,3.58S50.11,57.81,45,49.17Z"/><path class="cls-5" d="M21,48.89s4.34,16.5,10.82,16.45C39.66,65.26,39.08,46,39.08,46Z"/><path class="cls-6" d="M56.3,21.4a3.64,3.64,0,0,0-3.23-2.84c-2.91-.5-25.77-5.33-26.35-5.2S25,13,24,14.92Z"/><path class="cls-1" d="M31.23,76.15,20.69,59,14.33,35.46,27.24,13.34s-3.12-1.11-4.76,3.16-12,19.87-12,19.87l2.61,18L10.45,67.86s-.36,4,1.81,4.48Z"/><path class="cls-5" d="M38.93,27.45C38.59,26.77,46.66,20,50.49,21c.1,0,.2,0,.24.11l1,1.92c.06.13,0,.34-.15.31C47.39,22.71,39.26,28.11,38.93,27.45Z"/></svg>