<svg id="Ebene_1" data-name="Ebene 1" xmlns="http://www.w3.org/2000/svg" viewBox="0 0 70 90"><defs><style>.cls-1{fill:#cc1331;}.cls-2{fill:#6b1311;}.cls-3{fill:#d7d7d7;}.cls-4{fill:#c2c1c5;}.cls-5{fill:#1d1d1b;}.cls-6{fill:#be1622;}</style></defs><path class="cls-1" d="M52,73.49H20.39a4.16,4.16,0,0,1-4.16-4.16l-.13-14.2L9.82,37.51,18,15a4.16,4.16,0,0,1,4.16-4.16H49.5A4.16,4.16,0,0,1,53.66,15L60.18,40.5l-4,28.83C55.51,72.77,54.3,73.49,52,73.49Z"/><path class="cls-2" d="M23.78,17.77a46.56,46.56,0,0,1-.05,7.09c-.17,2.33-.46,4.65-.85,7l-1.47-1.75a72.85,72.85,0,0,1,7.38.3c1.23.1,2.46.27,3.7.44a37.12,37.12,0,0,1,3.69.75,37.18,37.18,0,0,1-3.69.76c-1.24.17-2.47.34-3.7.44-2.46.22-4.92.31-7.38.3H19.63l.31-1.74q.6-3.45,1.51-6.84A46.57,46.57,0,0,1,23.78,17.77Z"/><path class="cls-2" d="M46.75,68.64a16.43,16.43,0,0,1,3.36-1.19,27,27,0,0,1,3.41-.66l-.85.76q.24-1,.51-2c.21-.67.39-1.34.63-2s.48-1.32.75-2a17.37,17.37,0,0,1,.95-1.94,19.56,19.56,0,0,1,0,2.16c0,.71-.1,1.42-.19,2.11s-.2,1.39-.3,2.09-.27,1.38-.43,2.06l-.16.68-.69.08a28.77,28.77,0,0,1-3.48.21A18,18,0,0,1,46.75,68.64Z"/><ellipse class="cls-3" cx="47.85" cy="30.45" rx="6.04" ry="10.01" transform="matrix(0.95, -0.31, 0.31, 0.95, -7.08, 16.32)"/><path class="cls-4" d="M45,37.67s-1.6-11.57,4.29-15.58c0,0-4.12-2.47-5.8-.49C37.73,28.45,45,37.67,45,37.67Z"/><ellipse class="cls-5" cx="51.99" cy="31.4" rx="2.24" ry="3.36" transform="matrix(0.97, -0.26, 0.26, 0.97, -6.39, 14.64)"/><path class="cls-2" d="M24.68,51.42S37.44,63.52,43.08,60C49.91,55.64,39,39.07,39,39.07Z"/><path class="cls-6" d="M53.14,13.08a3.76,3.76,0,0,0-3.84-2.22c-3,.08-27.12-.15-27.68.1s-1.85,0-2.41,2.12Z"/><path class="cls-2" d="M38.91,73.49,24.78,58.32,13.58,35.8l8.55-25S18.76,10.34,18,15,9.82,37.51,9.82,37.51L16.1,55.13l.13,14.2s.45,4.16,2.74,4.16Z"/><path class="cls-2" d="M38.27,25.37C37.65,24.9,41.94,14.9,46,14.11c.1,0,.19-.07.28,0L48,15.43c.12.09.14.31,0,.35C43.88,17.09,38.88,25.82,38.27,25.37Z"/><path class="cls-1" d="M35.93,89.53c-6.41.08-8.6-2.8-8.06-5.16C28.71,80.7,32.64,79,35.69,79c4.87,0,16,3.43,15.71,7.33C51.11,90.41,35.93,89.53,35.93,89.53Z"/><path class="cls-5" d="M58.69,51.47a3.89,3.89,0,0,1-3.15.76c-2.26-.48-3.64-3-3.09-5.62s2.84-4.36,5.1-3.89a3.81,3.81,0,0,1,2.16,1.35"/></svg>