<svg id="Ebene_1" data-name="Ebene 1" xmlns="http://www.w3.org/2000/svg" viewBox="0 0 70 90"><defs><style>.cls-1{fill:#ededed;}.cls-2{fill:#c6c6c6;}.cls-3{fill:#d7d7d7;}.cls-4{fill:#c2c1c5;}.cls-5{fill:#1d1d1b;}.cls-6{fill:#b2b2b2;}</style></defs><path class="cls-1" d="M52.05,73.5H20.43a4.16,4.16,0,0,1-4.16-4.16l-.13-14.21L9.86,37.51,18,15a4.16,4.16,0,0,1,4.16-4.16H49.54A4.16,4.16,0,0,1,53.7,15L60.22,40.5l-4,28.84C55.56,72.78,54.35,73.5,52.05,73.5Z"/><path class="cls-2" d="M23.81,17.76a46.57,46.57,0,0,1,0,7.09c-.18,2.33-.47,4.65-.85,7l-1.47-1.75c2.46,0,4.92.08,7.38.3,1.23.1,2.46.28,3.69.45a34.16,34.16,0,0,1,3.7.75,36.74,36.74,0,0,1-3.7.75c-1.23.17-2.46.34-3.69.44a72.85,72.85,0,0,1-7.38.3H19.66L20,31.29c.41-2.29.91-4.57,1.52-6.83A46.22,46.22,0,0,1,23.81,17.76Z"/><path class="cls-2" d="M46.8,68.64a17.2,17.2,0,0,1,3.35-1.19,28.66,28.66,0,0,1,3.42-.66l-.85.77q.22-1,.51-2c.21-.67.38-1.35.62-2s.48-1.33.75-2a20.52,20.52,0,0,1,1-1.94,17.49,17.49,0,0,1,0,2.17c0,.7-.09,1.41-.18,2.11s-.21,1.39-.31,2.08-.26,1.38-.42,2.06l-.17.69-.68.08a26.87,26.87,0,0,1-3.48.2A16.5,16.5,0,0,1,46.8,68.64Z"/><ellipse class="cls-3" cx="47.89" cy="30.45" rx="6.05" ry="10.02" transform="translate(-7.08 16.34) rotate(-18.05)"/><path class="cls-4" d="M45.08,37.67s-1.6-11.58,4.29-15.59c0,0-4.12-2.47-5.8-.49C37.77,28.44,45.08,37.67,45.08,37.67Z"/><ellipse class="cls-5" cx="52.03" cy="31.39" rx="2.24" ry="3.36" transform="translate(-6.38 14.65) rotate(-15.11)"/><path class="cls-6" d="M29.24,39.71s-5.53,16.7.1,20.3c6.81,4.34,17.15-12.63,17.15-12.63Z"/><path class="cls-2" d="M53.19,13.07a3.76,3.76,0,0,0-3.85-2.22c-3,.08-27.13-.15-27.69.09s-1.84,0-2.4,2.13Z"/><path class="cls-6" d="M39,73.5,24.82,58.32,13.61,35.79l8.56-25S18.79,10.33,18,15,9.86,37.51,9.86,37.51l6.28,17.62.13,14.21S16.72,73.5,19,73.5Z"/><path class="cls-6" d="M38.31,25.36C37.69,24.89,42,14.89,46,14.1c.11,0,.2-.07.28,0L48,15.42c.12.09.15.31,0,.35C43.92,17.08,38.92,25.82,38.31,25.36Z"/><path class="cls-6" d="M36,89.54c-6.41.08-8.6-2.8-8.06-5.16.84-3.67,4.77-5.42,7.82-5.42,4.87,0,16,3.43,15.71,7.34C51.16,90.42,36,89.54,36,89.54Z"/><path class="cls-5" d="M58.74,51.47a3.9,3.9,0,0,1-3.15.76c-2.26-.48-3.64-3-3.09-5.62s2.83-4.37,5.09-3.89a3.78,3.78,0,0,1,2.17,1.35"/></svg>