<svg id="Ebene_1" data-name="Ebene 1" xmlns="http://www.w3.org/2000/svg" viewBox="0 0 70 90"><defs><style>.cls-1{fill:#2c3137;}.cls-2{fill:#454a51;}.cls-3{fill:#d7d7d7;}.cls-4{fill:#c2c1c5;}.cls-5{fill:#1d1d1b;}.cls-6{fill:#8c8c92;}</style></defs><path class="cls-1" d="M31.48,89.12c-6.4.32-8.7-2.48-8.25-4.86.7-3.7,4.57-5.59,7.61-5.71,4.87-.18,16.1,2.82,16,6.73C46.69,89.41,31.48,89.12,31.48,89.12Z"/><path class="cls-2" d="M38.1,90.17c-6.38.63-8.81-2-8.48-4.45.52-3.73,4.29-5.81,7.32-6.07,4.86-.42,16.23,2,16.29,6C53.3,89.74,38.1,90.17,38.1,90.17Z"/><path class="cls-2" d="M46.78,75.92l-31.29-4.6A4.16,4.16,0,0,1,12,66.6l1.94-14.08L10.27,34.17l11.34-21.1a4.16,4.16,0,0,1,4.72-3.52l27.09,4a4.16,4.16,0,0,1,3.51,4.72l2.74,26.2L51.5,72.41C50.35,75.72,49.05,76.25,46.78,75.92Z"/><path class="cls-1" d="M27,16.66a46.29,46.29,0,0,1-1.07,7Q25.1,27.09,24,30.42l-1.2-1.94c2.44.34,4.86.79,7.26,1.37,1.21.28,2.4.63,3.59,1a36.8,36.8,0,0,1,3.55,1.28,37,37,0,0,1-3.77.21c-1.24,0-2.48,0-3.71-.1-2.47-.14-4.92-.41-7.36-.78l-1.76-.27.56-1.67c.74-2.22,1.56-4.4,2.5-6.55A46.43,46.43,0,0,1,27,16.66Z"/><path class="cls-1" d="M42.29,70.35a17.25,17.25,0,0,1,3.49-.69,28.94,28.94,0,0,1,3.48-.15l-1,.63c.25-.65.52-1.3.8-1.94s.58-1.28.92-1.9.66-1.25,1-1.86a18.6,18.6,0,0,1,1.22-1.77A19,19,0,0,1,52,64.81c-.14.69-.3,1.38-.49,2.06s-.4,1.35-.6,2-.47,1.32-.73,2l-.26.66-.69,0a27.11,27.11,0,0,1-3.47-.31A16.68,16.68,0,0,1,42.29,70.35Z"/><ellipse class="cls-3" cx="48.93" cy="32.72" rx="6.05" ry="10.02" transform="translate(-2.95 4.91) rotate(-5.58)"/><path class="cls-4" d="M44.62,39.16s.94-11.64,7.56-14.29c0,0-3.49-3.3-5.56-1.73C39.48,28.58,44.62,39.16,44.62,39.16Z"/><ellipse class="cls-5" cx="52.77" cy="34.54" rx="2.24" ry="3.36" transform="translate(-1.54 2.47) rotate(-2.64)"/><path class="cls-5" d="M46.57,45.49s10.21,3.88,13.16,3.13c-1.27,3.59-1.31,3.76-1.31,3.76S52.28,54.12,46.57,45.49Z"/><path class="cls-6" d="M56.7,16.3a3.76,3.76,0,0,0-3.48-2.76c-3-.36-26.83-4.1-27.42-3.94S24,9.34,23.12,11.36Z"/><path class="cls-1" d="M33.82,74,22,56.94,14.23,33,26.33,9.55s-3.27-1-4.72,3.52-11.34,21.1-11.34,21.1l3.65,18.35L12,66.6s-.16,4.18,2.1,4.51Z"/><path class="cls-5" d="M39,23.82c-.43-.65,6.94-8.66,11-8.07.1,0,.2,0,.26.09l1.23,1.84c.09.12,0,.34-.11.33C47,17.87,39.38,24.45,39,23.82Z"/><path class="cls-5" d="M21.66,45.84s4.88,16.91,11.56,16.69c8.08-.27,7-20.12,7-20.12Z"/></svg>