<svg id="Ebene_1" data-name="Ebene 1" xmlns="http://www.w3.org/2000/svg" viewBox="0 0 70 90"><defs><style>.cls-1{fill:#454a51;}.cls-2{fill:#2c3137;}.cls-3{fill:#d7d7d7;}.cls-4{fill:#c2c1c5;}.cls-5{fill:#1d1d1b;}.cls-6{fill:#8c8c92;}</style></defs><path class="cls-1" d="M50.75,73.94H19.26a4.14,4.14,0,0,1-4.14-4.14L15,55.65,8.74,38.1l8.11-22.44A4.14,4.14,0,0,1,21,11.52H48.26a4.14,4.14,0,0,1,4.14,4.14l6.5,25.42-4,28.72C54.25,73.23,53,73.94,50.75,73.94Z"/><path class="cls-2" d="M22.63,18.43a46.19,46.19,0,0,1,0,7.06c-.18,2.33-.47,4.64-.85,6.93l-1.47-1.75a72.26,72.26,0,0,1,7.35.3c1.23.1,2.46.27,3.68.44a36.93,36.93,0,0,1,3.68.75,37,37,0,0,1-3.68.76c-1.22.17-2.45.34-3.68.44-2.45.23-4.9.31-7.35.3H18.5l.3-1.74c.41-2.29.9-4.56,1.51-6.81A47.08,47.08,0,0,1,22.63,18.43Z"/><path class="cls-2" d="M45.52,69.11a16.7,16.7,0,0,1,3.34-1.19,28.88,28.88,0,0,1,3.41-.66l-.85.77c.15-.68.32-1.36.5-2s.39-1.35.63-2,.48-1.32.75-2a17.23,17.23,0,0,1,1-1.93,19.35,19.35,0,0,1,0,2.15q-.06,1.07-.18,2.1c-.07.7-.21,1.39-.31,2.08s-.26,1.37-.42,2l-.17.69-.68.08a30.78,30.78,0,0,1-3.47.2A17.85,17.85,0,0,1,45.52,69.11Z"/><ellipse class="cls-3" cx="46.61" cy="31.07" rx="6.02" ry="9.98" transform="translate(-7.33 15.97) rotate(-18.05)"/><path class="cls-4" d="M43.82,38.26s-1.6-11.53,4.27-15.53c0,0-4.11-2.45-5.77-.48C36.54,29.07,43.82,38.26,43.82,38.26Z"/><ellipse class="cls-5" cx="50.74" cy="32.01" rx="2.23" ry="3.35" transform="translate(-6.59 14.33) rotate(-15.11)"/><path class="cls-5" d="M46.15,44s10.61,2.35,13.41,1.18c-.73,3.72-.74,3.89-.74,3.89S53,51.67,46.15,44Z"/><path class="cls-5" d="M21.48,45.85s4.27,17,10.92,17c8.05,0,7.68-19.77,7.68-19.77Z"/><path class="cls-6" d="M51.89,13.76a3.75,3.75,0,0,0-3.83-2.21c-3,.08-27-.15-27.58.09s-1.83,0-2.39,2.12Z"/><path class="cls-2" d="M37.71,73.94,23.64,58.82,12.48,36.39,21,11.52s-3.37-.49-4.15,4.14S8.74,38.1,8.74,38.1L15,55.65l.13,14.15s.45,4.14,2.73,4.14Z"/><path class="cls-5" d="M37.07,26c-.62-.46,3.66-10.43,7.65-11.22.11,0,.2-.07.28,0l1.77,1.32c.12.09.14.31,0,.35C42.66,17.76,37.68,26.46,37.07,26Z"/><path class="cls-1" d="M34.74,89.92c-6.38.08-8.56-2.79-8-5.14.84-3.66,4.76-5.4,7.79-5.4,4.86,0,15.92,3.42,15.65,7.31C49.87,90.79,34.74,89.92,34.74,89.92Z"/></svg>