<svg id="Ebene_1" data-name="Ebene 1" xmlns="http://www.w3.org/2000/svg" viewBox="0 0 70 90"><defs><style>.cls-1{fill:#2c3137;}.cls-2{fill:#454a51;}.cls-3{fill:#d7d7d7;}.cls-4{fill:#c2c1c5;}.cls-5{fill:#1d1d1b;}.cls-6{fill:#8c8c92;}</style></defs><path class="cls-1" d="M53.58,80.94c-5.23,3.66-8.65,2.52-9.53.27-1.37-3.49.88-7.14,3.39-8.85,4-2.74,13.62-5.22,15.59-1.85C65.12,74.06,53.58,80.94,53.58,80.94Z"/><path class="cls-2" d="M18.16,83.82c-4.83-4.18-4.56-7.78-2.59-9.18,3.05-2.18,7.14-.88,9.41,1.13C28.61,79,32.63,86.5,29.84,89.23S18.16,83.82,18.16,83.82Z"/><path class="cls-2" d="M51.75,69.6H20.25a4.15,4.15,0,0,1-4.15-4.15L16,51.3,9.71,33.73l8.12-22.45A4.14,4.14,0,0,1,22,7.14H49.26a4.14,4.14,0,0,1,4.15,4.14L59.9,36.71l-4,28.74C55.25,68.88,54,69.6,51.75,69.6Z"/><path class="cls-1" d="M23.62,14.05a46.31,46.31,0,0,1,0,7.07q-.27,3.49-.85,6.93L21.26,26.3a72.45,72.45,0,0,1,7.36.3c1.23.1,2.45.27,3.68.44a36.93,36.93,0,0,1,3.68.75,34.35,34.35,0,0,1-3.68.76c-1.23.17-2.45.34-3.68.44a72.45,72.45,0,0,1-7.36.3H19.48l.31-1.74q.6-3.43,1.51-6.81A45.21,45.21,0,0,1,23.62,14.05Z"/><path class="cls-1" d="M46.52,64.76a17.34,17.34,0,0,1,3.34-1.19,28.88,28.88,0,0,1,3.41-.66l-.85.77c.15-.68.32-1.36.5-2s.39-1.35.63-2,.48-1.32.75-2a19.15,19.15,0,0,1,1-1.93,17.33,17.33,0,0,1,0,2.16c0,.7-.1,1.41-.18,2.1s-.21,1.39-.31,2.08-.26,1.37-.42,2.05l-.17.69-.68.08a30.78,30.78,0,0,1-3.47.2A17.13,17.13,0,0,1,46.52,64.76Z"/><ellipse class="cls-3" cx="47.61" cy="26.7" rx="6.02" ry="9.98" transform="translate(-5.93 16.07) rotate(-18.05)"/><path class="cls-4" d="M44.81,33.89s-1.59-11.53,4.28-15.53c0,0-4.11-2.46-5.78-.49C37.53,24.7,44.81,33.89,44.81,33.89Z"/><ellipse class="cls-5" cx="51.74" cy="27.64" rx="2.23" ry="3.35" transform="translate(-5.42 14.44) rotate(-15.11)"/><path class="cls-5" d="M47.14,39.63S57.76,42,60.57,40.8c-.73,3.73-.75,3.9-.75,3.9S54,47.31,47.14,39.63Z"/><path class="cls-5" d="M33.39,56.69S20,45.36,22.92,39.38c3.53-7.24,21.15,1.81,21.15,1.81Z"/><path class="cls-6" d="M52.89,9.38a3.75,3.75,0,0,0-3.83-2.21c-3,.08-27-.15-27.59.09s-1.84,0-2.4,2.12Z"/><path class="cls-1" d="M38.71,69.6,24.62,54.47,13.46,32,22,7.14s-3.36-.49-4.15,4.14S9.71,33.73,9.71,33.73L16,51.3l.13,14.15s.45,4.15,2.73,4.15Z"/><path class="cls-5" d="M36.22,21.81c-.62-.47,2.12-11.27,7.66-11.23.1,0,.19-.07.28,0l1.76,1.32c.12.09.15.34,0,.35C38.81,12.77,36.83,22.26,36.22,21.81Z"/></svg>