<svg id="Ebene_1" data-name="Ebene 1" xmlns="http://www.w3.org/2000/svg" viewBox="0 0 70 90"><defs><style>.cls-1{fill:#2c3137;}.cls-2{fill:#454a51;}.cls-3{fill:#d7d7d7;}.cls-4{fill:#c2c1c5;}.cls-5{fill:#1d1d1b;}.cls-6{fill:#8c8c92;}</style></defs><path class="cls-1" d="M22.46,89.56c-6.43.07-8.63-2.82-8.09-5.19.85-3.68,4.79-5.43,7.84-5.43,4.89,0,16,3.44,15.77,7.36C37.69,90.43,22.46,89.56,22.46,89.56Z"/><path class="cls-2" d="M40.5,89.88c-6.39.71-8.87-1.95-8.56-4.36.48-3.74,4.23-5.88,7.27-6.18,4.87-.48,16.3,1.84,16.41,5.77C55.74,89.26,40.5,89.88,40.5,89.88Z"/><path class="cls-2" d="M50,72.87H18.27A4.17,4.17,0,0,1,14.1,68.7L14,54.45,7.67,36.76l8.17-22.59A4.18,4.18,0,0,1,20,10H47.48a4.18,4.18,0,0,1,4.17,4.18l6.54,25.6-4,28.93C53.51,72.15,52.3,72.87,50,72.87Z"/><path class="cls-1" d="M21.67,17a48.14,48.14,0,0,1-.05,7.11c-.18,2.35-.47,4.67-.85,7l-1.48-1.75c2.47,0,4.94.08,7.41.3,1.24.1,2.47.27,3.71.44a37.37,37.37,0,0,1,3.7.76,37.31,37.31,0,0,1-3.7.75c-1.24.17-2.47.34-3.71.44a73.44,73.44,0,0,1-7.41.3H17.51l.31-1.74c.41-2.3.91-4.59,1.52-6.86A46.93,46.93,0,0,1,21.67,17Z"/><path class="cls-1" d="M44.72,68a16.73,16.73,0,0,1,3.37-1.19,27,27,0,0,1,3.43-.66l-.85.76q.22-1,.51-2c.21-.68.38-1.36.63-2s.48-1.33.75-2a19.45,19.45,0,0,1,.95-2,19.71,19.71,0,0,1,0,2.17c0,.71-.1,1.42-.19,2.12s-.2,1.39-.31,2.09-.26,1.38-.43,2.07l-.16.68-.68.08a29.06,29.06,0,0,1-3.49.21A17.42,17.42,0,0,1,44.72,68Z"/><ellipse class="cls-3" cx="45.82" cy="29.68" rx="6.06" ry="10.05" transform="translate(-4.4 8.26) rotate(-9.83)"/><path class="cls-4" d="M42,36.45s.07-11.72,6.49-14.86c0,0-3.74-3-5.68-1.32C36.06,26.24,42,36.45,42,36.45Z"/><ellipse class="cls-5" cx="49.8" cy="31.21" rx="2.25" ry="3.37" transform="translate(-3.39 6.2) rotate(-6.89)"/><path class="cls-5" d="M45.35,42.7S56,45.06,58.87,43.88c-.74,3.75-.76,3.93-.76,3.93S52.27,50.43,45.35,42.7Z"/><path class="cls-6" d="M51.13,12.25A3.76,3.76,0,0,0,47.28,10c-3.05.09-27.22-.15-27.78.1s-1.85,0-2.41,2.13Z"/><path class="cls-1" d="M36.86,72.87,22.68,57.64,11.44,35,20,10s-3.39-.49-4.18,4.18S7.67,36.76,7.67,36.76L14,54.45,14.1,68.7s.45,4.17,2.75,4.17Z"/><path class="cls-5" d="M35.24,22.3c-.52-.58,5.63-9.6,9.73-9.61.11,0,.21,0,.28.05l1.49,1.65c.1.11.08.33-.07.35C42.36,15.23,35.76,22.87,35.24,22.3Z"/><path class="cls-5" d="M23.65,41.36s-4.09,17.17,1.84,20.28c7.18,3.76,16.06-14.09,16.06-14.09Z"/></svg>