<svg id="Ebene_1" data-name="Ebene 1" xmlns="http://www.w3.org/2000/svg" viewBox="0 0 70 90"><defs><style>.cls-1{fill:#2c3137;}.cls-2{fill:#454a51;}.cls-3{fill:#d7d7d7;}.cls-4{fill:#c2c1c5;}.cls-5{fill:#1d1d1b;}.cls-6{fill:#8c8c92;}</style></defs><path class="cls-1" d="M56.08,76.63c-3.71,5.24-7.34,5.32-8.94,3.49-2.47-2.85-1.57-7.06.22-9.53,2.88-4,11.14-9.55,14.15-7C64.68,66.22,56.08,76.63,56.08,76.63Z"/><path class="cls-2" d="M15.24,79.71c-3.27-5.52-1.87-8.87.45-9.58,3.6-1.11,7.09,1.43,8.61,4.07,2.45,4.23,3.89,12.66.37,14.39C21,90.4,15.24,79.71,15.24,79.71Z"/><path class="cls-2" d="M50.93,67.15H19.25A4.16,4.16,0,0,1,15.08,63L15,48.76,8.65,31.09,16.82,8.52A4.17,4.17,0,0,1,21,4.35H48.42a4.17,4.17,0,0,1,4.17,4.17l6.53,25.57L55.1,63C54.45,66.44,53.23,67.15,50.93,67.15Z"/><path class="cls-1" d="M22.64,11.31a46.69,46.69,0,0,1-.05,7.1c-.18,2.34-.47,4.66-.85,7l-1.47-1.75a73.36,73.36,0,0,1,7.4.3c1.23.1,2.46.27,3.7.44s2.46.41,3.7.75a35.22,35.22,0,0,1-3.7.76c-1.24.17-2.47.34-3.7.44-2.47.23-4.94.31-7.4.3H18.48l.31-1.74c.41-2.3.91-4.59,1.52-6.85A46.81,46.81,0,0,1,22.64,11.31Z"/><path class="cls-1" d="M45.67,62.29A17.05,17.05,0,0,1,49,61.1a28.66,28.66,0,0,1,3.42-.66l-.85.77c.15-.69.33-1.37.51-2.05s.39-1.35.63-2,.48-1.33.75-2a16.64,16.64,0,0,1,1-1.94,19.48,19.48,0,0,1,0,2.16c0,.71-.1,1.42-.19,2.12s-.2,1.39-.3,2.09-.27,1.38-.43,2.06l-.16.69-.69.08a31,31,0,0,1-3.48.2A17.26,17.26,0,0,1,45.67,62.29Z"/><ellipse class="cls-3" cx="46.76" cy="24.02" rx="6.06" ry="10.04" transform="translate(-5.14 15.67) rotate(-18.05)"/><path class="cls-4" d="M44,31.25s-1.6-11.59,4.3-15.61c0,0-4.13-2.47-5.81-.49C36.63,22,44,31.25,44,31.25Z"/><ellipse class="cls-5" cx="50.91" cy="24.97" rx="2.24" ry="3.37" transform="matrix(0.97, -0.26, 0.26, 0.97, -4.75, 14.14)"/><path class="cls-5" d="M46.29,37S57,39.38,59.79,38.2C59.05,42,59,42.12,59,42.12S53.2,44.74,46.29,37Z"/><path class="cls-5" d="M27.12,51.68s-6.05-16.57-.52-20.33c6.69-4.56,17.56,12.12,17.56,12.12Z"/><path class="cls-6" d="M52.07,6.61a3.76,3.76,0,0,0-3.85-2.22c-3,.08-27.19-.16-27.75.09s-1.84,0-2.4,2.13Z"/><path class="cls-1" d="M37.81,67.15,23.65,52,12.42,29.38,21,4.35s-3.38-.49-4.17,4.17S8.65,31.09,8.65,31.09L15,48.76,15.08,63s.45,4.16,2.74,4.16Z"/><path class="cls-5" d="M35.31,19.1c-.62-.46,2.13-11.32,7.7-11.28.11,0,.19-.07.28,0l1.77,1.33c.12.09.15.35,0,.36C37.91,10,35.92,19.56,35.31,19.1Z"/></svg>