<svg id="Ebene_1" data-name="Ebene 1" xmlns="http://www.w3.org/2000/svg" viewBox="0 0 65 70"><defs><style>.cls-1{fill:#8e172f;}.cls-2{fill:#79132e;}.cls-3{fill:#3c3c3b;}.cls-4{fill:#706f6f;}.cls-5{fill:#414140;}.cls-6{fill:#878787;}.cls-7{fill:#cbbba0;}.cls-8{fill:#bcaf95;}.cls-9{fill:#77142d;}.cls-10{fill:#1d1d1b;}.cls-11{fill:#feee60;}.cls-12{fill:#626261;}</style></defs><polygon class="cls-1" points="56.52 30.22 46.01 31.93 48.54 37.27 56.52 30.22"/><polyline class="cls-2" points="47.26 34.63 48.52 37.3 56.5 30.25"/><path class="cls-3" d="M16.6,67.8c-1.51-1.66,5.52-9.8,13.33-9.88,4.59,0,9.25,8,8.21,9.52C36.37,70,19.36,70.84,16.6,67.8Z"/><path class="cls-4" d="M30.8,58.91c2.15-.11,6.52,5,6.54,7.06s-8.17,3.16-9.51,1.76C27,66.92,28.65,59,30.8,58.91Z"/><path class="cls-5" d="M31,67.52c-1.47-1.7,5.77-9.66,13.59-9.53,4.58.08,9,8.28,8,9.73C50.69,70.21,33.66,70.63,31,67.52Z"/><path class="cls-4" d="M45.41,59c2.15,0,6.39,5.17,6.35,7.24s-8.24,2.94-9.55,1.51C41.44,66.91,43.25,59.05,45.41,59Z"/><rect class="cls-6" x="30.55" y="11.13" width="7.29" height="13.45" transform="translate(-0.04 0.08) rotate(-0.14)"/><rect class="cls-2" x="29.73" y="4.58" width="8.9" height="7.2" transform="translate(-0.02 0.08) rotate(-0.14)"/><path class="cls-6" d="M29.1,4.85s-8,.55-14,5.09a55.61,55.61,0,0,1,14,1.54Z"/><rect class="cls-1" x="30.34" y="5.07" width="7.68" height="6.22" transform="translate(-0.02 0.08) rotate(-0.14)"/><path class="cls-4" d="M15.12,9.94a62.93,62.93,0,0,1,14-.85v2.39A55.61,55.61,0,0,0,15.12,9.94Z"/><path class="cls-6" d="M39.22,5s8,.47,14,4.94a55.33,55.33,0,0,0-14,1.7Z"/><path class="cls-4" d="M53.25,9.94a63.05,63.05,0,0,0-14-.69l0,2.39A55.33,55.33,0,0,1,53.25,9.94Z"/><rect class="cls-4" x="30.96" y="12.22" width="0.97" height="13.45" transform="translate(-0.04 0.07) rotate(-0.14)"/><polygon class="cls-1" points="12.55 29.59 19.63 37.53 22.77 32.54 12.55 29.59"/><polyline class="cls-2" points="21.23 35.03 22.81 32.54 12.58 29.59"/><path class="cls-7" d="M16.6,36.68c-.85,1.76-1.31,1.62-1.31,3.63,0,8.77,8.92,15.87,19.94,15.87,9.64,0,17.68-5.44,19.54-12.67Z"/><path class="cls-8" d="M54.13,45.74A19.8,19.8,0,0,1,36.58,56.09s6.9-5.33,7.33-7.07,1.22-5.84,2.45-7S54.93,44.24,54.13,45.74Z"/><path class="cls-1" d="M32.5,24A20.61,20.61,0,0,0,13.71,42c-1.93,1.23-5,3.91-3,4.4a118.8,118.8,0,0,0,43.59,2.34,20.27,20.27,0,0,0,.37-5.9A20.59,20.59,0,0,0,32.5,24Z"/><path class="cls-2" d="M28.75,27.73s-6.41,3.21-9.43,14.8C21.49,42.82,24,43,24,43S27,30.66,28.75,27.73Z"/><path class="cls-2" d="M39.24,27.79s9.36,4,12.32,16.36a43.48,43.48,0,0,1-5.72.05S41.4,30.4,39.24,27.79Z"/><path class="cls-2" d="M34.07,27.16s-3.38,9.9-3.62,16.47a53.43,53.43,0,0,0,7,.27S37.4,32.05,34.07,27.16Z"/><path class="cls-9" d="M12.37,44.19s-2.22,1-1.56,1.38a123.37,123.37,0,0,0,18.32,3.19c17.45,1.1,21.6-.14,22.91-.39C48.9,48.35,27.23,48.63,12.37,44.19Z"/><path class="cls-3" d="M15.2,35.59c20,.93,21.94,1.23,38.8,2.58,1,1.8,1.23,5.62,1.23,5.62a191.6,191.6,0,0,1-41-2.81"/><path class="cls-10" d="M53.64,39.24c.08.3.14.6.2.89s.11.6.15.9c.1.6.17,1.2.24,1.8l0,.3-.33.06c-.61.09-1.21.15-1.81.19s-1.21,0-1.82,0l-.91,0c-.3,0-.6,0-.9-.07a14,14,0,0,1-1.8-.27c.61-.08,1.21-.13,1.8-.17l1.8-.13,1.78-.11c.59,0,1.19-.07,1.77-.12l-.29.36c0-.61,0-1.21,0-1.82,0-.3,0-.6,0-.91S53.61,39.54,53.64,39.24Z"/><path class="cls-3" d="M13.38,32.15c1.12.29,2.81,2.72,2.55,3.73l-1.24,5c-.26,1-3.08,2.69-4.19,2.4"/><ellipse class="cls-11" cx="11.93" cy="37.73" rx="5.77" ry="0.81" transform="translate(-27.59 39.81) rotate(-75.46)"/><path class="cls-10" d="M16,35.62a23,23,0,0,1-.86,4.08c1.44-2.93,1.29-4.05,1.29-4.05Z"/><path class="cls-12" d="M14.56,33.74A5.69,5.69,0,0,1,15.37,35a3.54,3.54,0,0,1,0,1.68Z"/><polygon class="cls-1" points="34.5 16.04 31.55 26.27 37.45 26.27 34.5 16.04"/><polygon class="cls-1" points="48.68 19.86 40.73 26.93 45.73 30.08 48.68 19.86"/><polygon class="cls-1" points="21.25 18.83 23.42 29.25 28.64 26.49 21.25 18.83"/><polyline class="cls-2" points="26.04 27.88 28.65 26.5 21.27 18.84"/><polyline class="cls-2" points="34.5 26.27 37.45 26.27 34.5 16.04"/></svg>