<svg id="Ebene_1" data-name="Ebene 1" xmlns="http://www.w3.org/2000/svg" viewBox="0 0 65 70"><defs><style>.cls-1{fill:#3c3c3b;}.cls-2{fill:#706f6f;}.cls-3{fill:#414140;}.cls-4{fill:#878787;}.cls-5{fill:#79132e;}.cls-6{fill:#8e172f;}.cls-7{fill:#cbbba0;}.cls-8{fill:#bcaf95;}.cls-9{fill:#77142d;}.cls-10{fill:#1d1d1b;}.cls-11{fill:#feee60;}.cls-12{fill:#626261;}</style></defs><path class="cls-1" d="M12.71,67c-1.47-1.7,5.77-9.66,13.59-9.53,4.58.08,9,8.27,8,9.73C32.42,69.7,15.38,70.12,12.71,67Z"/><path class="cls-2" d="M27.13,58.49c2.16-.05,6.4,5.17,6.36,7.23s-8.24,2.94-9.56,1.51C23.17,66.4,25,58.54,27.13,58.49Z"/><path class="cls-3" d="M27.19,67.52C25.72,65.82,33,57.86,40.78,58c4.58.08,9,8.28,8,9.73C46.9,70.21,29.86,70.63,27.19,67.52Z"/><path class="cls-2" d="M41.61,59c2.16,0,6.4,5.17,6.36,7.24s-8.24,2.94-9.56,1.51C37.65,66.91,39.46,59.05,41.61,59Z"/><rect class="cls-4" x="40.11" y="13.46" width="7.29" height="14.74" transform="translate(75.23 57.67) rotate(-155.97)"/><rect class="cls-5" x="43.51" y="7.8" width="8.9" height="7.2" transform="translate(87.11 41.35) rotate(-155.97)"/><path class="cls-4" d="M54,10.41s7.11,3.75,10.72,10.31a55.61,55.61,0,0,0-13.42-4.25Z"/><rect class="cls-6" x="44.12" y="8.3" width="7.68" height="6.22" transform="translate(87.11 41.35) rotate(-155.97)"/><path class="cls-2" d="M64.67,20.72a63.11,63.11,0,0,0-12.45-6.43l-1,2.18A55.61,55.61,0,0,1,64.67,20.72Z"/><path class="cls-4" d="M44.63,6.45S37.11,3.63,29.81,5.29A55.18,55.18,0,0,1,41.9,12.5Z"/><path class="cls-2" d="M29.81,5.29a62.54,62.54,0,0,1,13.07,5l-1,2.18A55.18,55.18,0,0,0,29.81,5.29Z"/><rect class="cls-2" x="45.61" y="15.63" width="0.97" height="13.45" transform="translate(79.09 61.54) rotate(-155.97)"/><polygon class="cls-6" points="9.3 29.54 16.38 37.48 19.53 32.49 9.3 29.54"/><polyline class="cls-5" points="17.99 34.99 19.56 32.49 9.34 29.54"/><polygon class="cls-6" points="52.94 30.04 42.44 31.75 44.97 37.09 52.94 30.04"/><polyline class="cls-5" points="43.68 34.45 44.95 37.12 52.92 30.07"/><path class="cls-7" d="M13.36,36.63C12.51,38.4,12,38.25,12,40.26,12,49,21,56.14,32,56.14c9.64,0,17.68-5.45,19.54-12.68Z"/><path class="cls-8" d="M50.88,45.69A19.79,19.79,0,0,1,33.33,56.05s6.9-5.34,7.33-7.08,1.23-5.84,2.45-6.95S51.68,44.19,50.88,45.69Z"/><path class="cls-6" d="M29.25,23.91a20.6,20.6,0,0,0-18.78,18c-1.94,1.23-5,3.91-3,4.4a118.85,118.85,0,0,0,43.6,2.34A20.6,20.6,0,0,0,29.25,23.91Z"/><path class="cls-5" d="M25.5,27.68s-6.41,3.22-9.42,14.8c2.16.29,4.69.51,4.69.51S23.79,30.61,25.5,27.68Z"/><path class="cls-5" d="M36,27.74s9.37,4,12.32,16.37a44.32,44.32,0,0,1-5.71,0S38.16,30.35,36,27.74Z"/><path class="cls-5" d="M30.83,27.11S27.44,37,27.21,43.58a53.4,53.4,0,0,0,7,.27S34.15,32,30.83,27.11Z"/><path class="cls-9" d="M9.12,44.14s-2.22,1-1.56,1.38a123.62,123.62,0,0,0,18.32,3.19c17.46,1.1,21.61-.14,22.91-.39C45.65,48.3,24,48.59,9.12,44.14Z"/><path class="cls-1" d="M12,35.54c20,.93,21.94,1.23,38.8,2.58,1,1.8,1.22,5.62,1.22,5.62a191.5,191.5,0,0,1-41-2.81"/><path class="cls-10" d="M50.4,39.19c.07.3.13.6.19.9s.11.59.16.89q.14.9.24,1.8l0,.31-.32,0c-.62.1-1.21.15-1.82.19s-1.21.06-1.81.05c-.31,0-.61,0-.91,0l-.91-.06A15.49,15.49,0,0,1,43.46,43c.6-.07,1.2-.12,1.8-.17l1.79-.12,1.78-.12c.6,0,1.2-.07,1.78-.12l-.3.36c0-.61,0-1.21,0-1.82l0-.91C50.35,39.8,50.37,39.5,50.4,39.19Z"/><path class="cls-1" d="M10.14,32.1c1.11.29,2.81,2.72,2.55,3.73l-1.25,5.05c-.26,1-3.07,2.68-4.19,2.39"/><ellipse class="cls-11" cx="8.69" cy="37.68" rx="5.77" ry="0.81" transform="translate(-29.97 36.63) rotate(-75.46)"/><path class="cls-10" d="M12.72,35.57a24.27,24.27,0,0,1-.86,4.08c1.43-2.93,1.28-4,1.28-4Z"/><path class="cls-12" d="M11.32,33.69A6.1,6.1,0,0,1,12.13,35a3.54,3.54,0,0,1,0,1.68Z"/><polygon class="cls-6" points="31.25 15.99 28.3 26.22 34.2 26.22 31.25 15.99"/><polygon class="cls-6" points="45.43 19.81 37.49 26.89 42.48 30.03 45.43 19.81"/><polygon class="cls-6" points="18.01 18.78 20.17 29.2 25.39 26.45 18.01 18.78"/><polyline class="cls-5" points="22.8 27.83 25.41 26.45 18.02 18.79"/><polyline class="cls-5" points="39.99 28.49 42.48 30.07 45.44 19.84"/><polyline class="cls-5" points="31.25 26.22 34.2 26.22 31.25 15.99"/></svg>