<svg id="Ebene_1" data-name="Ebene 1" xmlns="http://www.w3.org/2000/svg" viewBox="0 0 65 70"><defs><style>.cls-1{fill:#878787;}.cls-2{fill:#79132e;}.cls-3{fill:#8e172f;}.cls-4{fill:#706f6f;}.cls-5{fill:#cbbba0;}.cls-6{fill:#bcaf95;}.cls-7{fill:#77142d;}.cls-8{fill:#3c3c3b;}.cls-9{fill:#1d1d1b;}.cls-10{fill:#feee60;}.cls-11{fill:#626261;}.cls-12{fill:#414140;}</style></defs><rect class="cls-1" x="17.41" y="17.82" width="7.29" height="13.45" transform="translate(-11.06 20.72) rotate(-42.6)"/><rect class="cls-2" x="10.06" y="13.82" width="8.9" height="7.2" transform="translate(-7.96 14.42) rotate(-42.6)"/><path class="cls-1" d="M8.51,18.39S3,24.21,1.63,31.58A55.08,55.08,0,0,1,13,23.28Z"/><rect class="cls-3" x="10.67" y="14.31" width="7.68" height="6.22" transform="translate(-7.96 14.42) rotate(-42.6)"/><path class="cls-4" d="M1.63,31.58a63.24,63.24,0,0,1,9.75-10.06L13,23.28A55.08,55.08,0,0,0,1.63,31.58Z"/><path class="cls-1" d="M16.08,11.67S22.31,6.6,29.76,5.84A55.52,55.52,0,0,0,20.6,16.53Z"/><path class="cls-4" d="M29.76,5.84A63.37,63.37,0,0,0,19,14.78l1.63,1.75A55.52,55.52,0,0,1,29.76,5.84Z"/><rect class="cls-4" x="19.27" y="20.48" width="0.97" height="13.45" transform="translate(-13.2 20.55) rotate(-42.6)"/><polygon class="cls-3" points="17.56 29.65 24.64 37.6 27.78 32.6 17.56 29.65"/><polyline class="cls-2" points="26.24 35.1 27.82 32.6 17.59 29.65"/><polygon class="cls-3" points="60.55 26.63 50.05 28.34 52.58 33.67 60.55 26.63"/><polyline class="cls-2" points="51.3 31.04 52.56 33.7 60.54 26.66"/><path class="cls-5" d="M21.61,36.74c-.85,1.77-1.31,1.62-1.31,3.63,0,8.77,8.92,15.88,19.94,15.88,9.64,0,17.68-5.45,19.54-12.68Z"/><path class="cls-6" d="M59.14,45.8A19.81,19.81,0,0,1,41.59,56.16s6.9-5.34,7.33-7.07,1.22-5.84,2.45-7S59.94,44.3,59.14,45.8Z"/><path class="cls-3" d="M37.51,24A20.62,20.62,0,0,0,18.72,42c-1.93,1.23-5,3.91-3,4.41a118.65,118.65,0,0,0,43.59,2.33,20.23,20.23,0,0,0,.37-5.89A20.6,20.6,0,0,0,37.51,24Z"/><path class="cls-2" d="M33.76,27.79S27.35,31,24.33,42.6c2.17.29,4.69.5,4.69.5S32,30.72,33.76,27.79Z"/><path class="cls-2" d="M44.25,27.85s9.36,4,12.32,16.37a44.5,44.5,0,0,1-5.72,0S46.41,30.46,44.25,27.85Z"/><path class="cls-2" d="M39.08,27.22s-3.38,9.9-3.62,16.47a53.4,53.4,0,0,0,7,.27S42.41,32.11,39.08,27.22Z"/><path class="cls-7" d="M17.38,44.25s-2.22,1-1.56,1.38a123.37,123.37,0,0,0,18.32,3.19c17.45,1.1,21.6-.14,22.91-.39C53.91,48.41,32.24,48.7,17.38,44.25Z"/><path class="cls-8" d="M20.21,35.65c20,.93,21.94,1.23,38.8,2.58,1,1.8,1.23,5.62,1.23,5.62a192,192,0,0,1-41-2.8"/><path class="cls-9" d="M58.65,39.3c.08.3.14.6.2.9s.11.59.15.89c.1.6.17,1.2.24,1.8l0,.31-.33,0c-.61.1-1.21.15-1.81.2s-1.21,0-1.82,0l-.91,0-.9-.07q-.9-.09-1.8-.27c.61-.08,1.21-.13,1.8-.18l1.79-.12,1.79-.11,1.77-.13-.29.36c0-.6,0-1.21,0-1.82q0-.45,0-.9C58.6,39.91,58.62,39.61,58.65,39.3Z"/><path class="cls-8" d="M18.39,32.21c1.11.29,2.81,2.72,2.55,3.73L19.7,41c-.26,1-3.08,2.68-4.19,2.39"/><ellipse class="cls-10" cx="16.94" cy="37.79" rx="5.77" ry="0.81" transform="translate(-23.89 44.7) rotate(-75.46)"/><path class="cls-9" d="M21,35.69a24.31,24.31,0,0,1-.86,4.07c1.44-2.93,1.29-4,1.29-4Z"/><path class="cls-11" d="M19.57,33.81a5.43,5.43,0,0,1,.81,1.27,3.5,3.5,0,0,1,0,1.67Z"/><polygon class="cls-3" points="39.51 16.1 36.56 26.33 42.46 26.33 39.51 16.1"/><polygon class="cls-3" points="53.69 19.92 45.74 27 50.74 30.14 53.69 19.92"/><polygon class="cls-3" points="26.27 18.89 28.43 29.31 33.65 26.56 26.27 18.89"/><polyline class="cls-2" points="31.05 27.94 33.66 26.57 26.28 18.9"/><polyline class="cls-2" points="48.23 28.61 50.73 30.18 53.68 19.95"/><polyline class="cls-2" points="39.51 26.33 42.46 26.33 39.51 16.1"/><path class="cls-8" d="M37.16,67.31c-1.75-1.59,4.77-10.84,13-11.72,4.79-.51,10.5,7.47,9.57,9.12C58.08,67.56,40.36,70.2,37.16,67.31Z"/><path class="cls-4" d="M51.11,56.54c2.24-.33,7.35,4.56,7.58,6.72s-8.23,4.14-9.78,2.82C48,65.31,48.87,56.87,51.11,56.54Z"/><path class="cls-12" d="M19.31,67.41c-1.44-1.73,5.92-9.57,13.74-9.32,4.58.15,8.89,8.42,7.8,9.85C39,70.41,21.93,70.56,19.31,67.41Z"/><path class="cls-4" d="M33.87,59.11c2.15,0,6.3,5.27,6.24,7.34s-8.29,2.81-9.58,1.36C29.78,67,31.71,59.13,33.87,59.11Z"/></svg>