<svg id="Ebene_1" data-name="Ebene 1" xmlns="http://www.w3.org/2000/svg" viewBox="0 0 65 70"><defs><style>.cls-1{fill:#878787;}.cls-2{fill:#79132e;}.cls-3{fill:#8e172f;}.cls-4{fill:#706f6f;}.cls-5{fill:#cbbba0;}.cls-6{fill:#bcaf95;}.cls-7{fill:#77142d;}.cls-8{fill:#3c3c3b;}.cls-9{fill:#1d1d1b;}.cls-10{fill:#feee60;}.cls-11{fill:#626261;}.cls-12{fill:#414140;}</style></defs><rect class="cls-1" x="20.73" y="13.36" width="7.29" height="13.45" transform="translate(-6.06 11.67) rotate(-24.03)"/><rect class="cls-2" x="15.99" y="7.64" width="8.9" height="7.2" transform="translate(-2.81 9.3) rotate(-24.03)"/><path class="cls-1" d="M14.45,10.25S7.34,14,3.73,20.57a55.4,55.4,0,0,1,13.42-4.26Z"/><rect class="cls-3" x="16.6" y="8.14" width="7.68" height="6.22" transform="translate(-2.81 9.3) rotate(-24.03)"/><path class="cls-4" d="M3.73,20.57a62.83,62.83,0,0,1,12.45-6.44l1,2.18A55.4,55.4,0,0,0,3.73,20.57Z"/><path class="cls-1" d="M23.76,6.29s7.53-2.82,14.83-1.16A55.18,55.18,0,0,0,26.5,12.34Z"/><path class="cls-4" d="M38.59,5.13a63.21,63.21,0,0,0-13.07,5l1,2.18A55.18,55.18,0,0,1,38.59,5.13Z"/><rect class="cls-4" x="21.82" y="15.47" width="0.97" height="13.45" transform="translate(-7.1 11.01) rotate(-24.03)"/><polygon class="cls-3" points="13.04 29.59 20.11 37.53 23.26 32.54 13.04 29.59"/><polyline class="cls-2" points="21.72 35.03 23.3 32.54 13.07 29.58"/><polygon class="cls-3" points="56.68 30.09 46.17 31.8 48.7 37.13 56.68 30.09"/><polyline class="cls-2" points="47.42 34.5 48.68 37.16 56.66 30.12"/><path class="cls-5" d="M17.09,36.68c-.85,1.76-1.31,1.62-1.31,3.62,0,8.77,8.93,15.88,19.94,15.88,9.64,0,17.68-5.44,19.54-12.68Z"/><path class="cls-6" d="M54.62,45.74A19.8,19.8,0,0,1,37.07,56.09S44,50.76,44.4,49s1.22-5.84,2.45-7S55.42,44.24,54.62,45.74Z"/><path class="cls-3" d="M33,24A20.61,20.61,0,0,0,14.2,42c-1.93,1.23-5,3.91-3,4.4a118.86,118.86,0,0,0,43.6,2.34A20.63,20.63,0,0,0,33,24Z"/><path class="cls-2" d="M29.24,27.73s-6.41,3.21-9.43,14.8c2.17.29,4.69.51,4.69.51S27.52,30.66,29.24,27.73Z"/><path class="cls-2" d="M39.73,27.79s9.36,4,12.32,16.36a43.48,43.48,0,0,1-5.72.05S41.89,30.4,39.73,27.79Z"/><path class="cls-2" d="M34.56,27.16S31.18,37.06,31,43.63a53.26,53.26,0,0,0,7,.27S37.89,32.05,34.56,27.16Z"/><path class="cls-7" d="M12.86,44.19s-2.22,1-1.56,1.38a124.73,124.73,0,0,0,18.32,3.19c17.45,1.1,21.6-.15,22.91-.39C49.39,48.34,27.72,48.63,12.86,44.19Z"/><path class="cls-8" d="M15.69,35.59c20,.92,21.94,1.23,38.8,2.58,1,1.8,1.23,5.62,1.23,5.62A191.6,191.6,0,0,1,14.7,41"/><path class="cls-9" d="M54.13,39.24c.08.3.14.59.2.89s.11.6.15.9c.1.6.17,1.2.24,1.8l0,.3-.33.06c-.61.09-1.21.15-1.81.19s-1.21,0-1.82,0l-.91,0c-.3,0-.6,0-.9-.07a14,14,0,0,1-1.8-.27c.61-.08,1.21-.13,1.81-.17l1.79-.13,1.78-.11c.59,0,1.19-.07,1.77-.12l-.29.36c0-.61,0-1.21,0-1.82,0-.3,0-.6,0-.91S54.1,39.54,54.13,39.24Z"/><path class="cls-8" d="M13.87,32.15c1.12.29,2.81,2.72,2.55,3.73l-1.24,5c-.26,1-3.08,2.69-4.19,2.4"/><ellipse class="cls-10" cx="12.42" cy="37.73" rx="5.77" ry="0.81" transform="matrix(0.25, -0.97, 0.97, 0.25, -27.22, 40.28)"/><path class="cls-9" d="M16.45,35.62a23,23,0,0,1-.86,4.08c1.44-2.93,1.29-4.05,1.29-4.05Z"/><path class="cls-11" d="M15.05,33.74A5.69,5.69,0,0,1,15.86,35a3.54,3.54,0,0,1,0,1.68Z"/><polygon class="cls-3" points="34.99 16.04 32.04 26.27 37.94 26.27 34.99 16.04"/><polygon class="cls-3" points="49.17 19.85 41.22 26.93 46.22 30.08 49.17 19.85"/><polygon class="cls-3" points="21.75 18.83 23.91 29.25 29.13 26.49 21.75 18.83"/><polyline class="cls-2" points="26.53 27.88 29.14 26.5 21.76 18.84"/><polyline class="cls-2" points="43.72 28.54 46.22 30.11 49.17 19.89"/><polyline class="cls-2" points="34.99 26.27 37.94 26.27 34.99 16.04"/><path class="cls-8" d="M32.23,66.23c-1.51-1.66,5.49-9.82,13.31-9.92,4.59-.05,9.27,8,8.24,9.49C52,68.35,35,69.26,32.23,66.23Z"/><path class="cls-4" d="M46.41,57.29c2.15-.1,6.54,5,6.56,7.05s-8.16,3.18-9.51,1.79C42.67,65.32,44.26,57.4,46.41,57.29Z"/><path class="cls-12" d="M14.89,67.74c-1.46-1.71,5.82-9.63,13.64-9.45,4.58.1,9,8.32,7.91,9.76C34.58,70.54,17.55,70.86,14.89,67.74Z"/><path class="cls-4" d="M29.36,59.3c2.16,0,6.37,5.2,6.32,7.27S27.42,69.46,26.12,68C25.36,67.19,27.21,59.33,29.36,59.3Z"/></svg>